<svg viewBox="0 0 16 15" fill="none" xmlns="http://www.w3.org/2000/svg">
<path d="M6.85583 2.26112C7.14482 2.21772 7.44295 2.19444 7.75 2.19444C11.3801 2.19444 13.7621 5.44794 14.5624 6.73493C14.6592 6.8907 14.7076 6.96858 14.7347 7.08871C14.7551 7.17893 14.7551 7.32126 14.7347 7.41147C14.7076 7.53159 14.6588 7.61 14.5613 7.7668C14.3481 8.10955 14.023 8.59124 13.5923 9.11366M3.99827 3.43308C2.46086 4.49234 1.41714 5.96399 0.938333 6.73382C0.841043 6.89024 0.792398 6.96845 0.765281 7.08857C0.744914 7.17879 0.744906 7.3211 0.765262 7.41131C0.792366 7.53144 0.840792 7.60932 0.937643 7.76507C1.7379 9.05206 4.11993 12.3056 7.75 12.3056C9.21369 12.3056 10.4745 11.7766 11.5105 11.0609M1.35027 0.75L14.1497 13.75M6.24157 5.71793C5.85553 6.11002 5.61675 6.65169 5.61675 7.25C5.61675 8.44662 6.57184 9.41667 7.75 9.41667C8.33908 9.41667 8.87239 9.17415 9.25843 8.78206" stroke="#616161" stroke-width="1.5" stroke-linecap="round" stroke-linejoin="round"/>
</svg>
