<svg viewBox="0 0 16 12" fill="none" xmlns="http://www.w3.org/2000/svg">
<path d="M0.937635 6.25941C0.840795 6.10539 0.792375 6.02837 0.76527 5.90958C0.74491 5.82036 0.74491 5.67964 0.76527 5.59042C0.792375 5.47163 0.840795 5.39462 0.937635 5.24059C1.73789 3.96774 4.11992 0.75 7.75 0.75C11.3801 0.75 13.7621 3.96774 14.5624 5.24059C14.6592 5.39462 14.7076 5.47163 14.7347 5.59042C14.7551 5.67964 14.7551 5.82036 14.7347 5.90958C14.7076 6.02837 14.6592 6.10538 14.5624 6.25941C13.7621 7.53226 11.3801 10.75 7.75 10.75C4.11992 10.75 1.73789 7.53226 0.937635 6.25941Z" stroke="#616161" stroke-width="1.5" stroke-linecap="round" stroke-linejoin="round"/>
<path d="M7.75 7.89286C8.92816 7.89286 9.88325 6.93347 9.88325 5.75C9.88325 4.56653 8.92816 3.60714 7.75 3.60714C6.57184 3.60714 5.61675 4.56653 5.61675 5.75C5.61675 6.93347 6.57184 7.89286 7.75 7.89286Z" stroke="#616161" stroke-width="1.5" stroke-linecap="round" stroke-linejoin="round"/>
</svg>
