<svg viewBox="0 0 26 26" fill="none" xmlns="http://www.w3.org/2000/svg">
<path d="M13 26C20.1797 26 26 20.1797 26 13C26 5.8203 20.1797 0 13 0C5.8203 0 0 5.8203 0 13C0 20.1797 5.8203 26 13 26Z" fill="#292E8C"/>
<path d="M14.4402 21.2811V14.0364H16.8569L17.3152 11.0415H14.4402V9.09391C14.4402 8.27561 14.8439 7.47368 16.1314 7.47368H17.4406V4.9206C17.4406 4.9206 16.2514 4.71875 15.1221 4.71875C12.7545 4.71875 11.2052 6.1535 11.2052 8.75022V11.036H8.57031V14.031H11.2052V21.2756H14.4457L14.4402 21.2811Z" fill="white"/>
</svg>
