<svg width="900" height="900" viewBox="0 0 900 900" fill="none" xmlns="http://www.w3.org/2000/svg">
<g clip-path="url(#clip0_595_312)">
<path d="M33.8302 185.726L24.1951 319.329L48.186 371.253L53.5574 411.288L62.0261 423.674L90.5666 444.634L165.004 457.536L242.825 465.416L284.365 465.038L287.978 448.346C258.96 409.303 240.321 384.214 240.321 384.214C240.321 384.214 201.84 392.193 130.423 406.98C102.762 374.092 75.0823 341.202 47.4216 308.313L33.8108 185.747L33.8302 185.726Z" fill="#386984"/>
<path fill-rule="evenodd" clip-rule="evenodd" d="M47.4361 308.292L33.8253 185.726L33.8447 185.747L63.6655 287.928L116.712 338.423L145.444 325.919L234.181 246.662L267.194 244.34L329.99 252.697L321.598 292.016L240.336 384.194C220.355 388.329 200.381 392.468 180.409 396.608C163.751 400.06 147.094 403.513 130.437 406.961C116.606 390.515 102.77 374.069 88.9337 357.623C75.0991 341.18 61.2652 324.736 47.4361 308.292ZM198.778 326.435L240.739 307.399L229.231 330.047L218.659 337.212L209.292 334.593L198.778 326.435Z" fill="#4D6F9B"/>
<path d="M288.013 448.321L321.599 291.992L240.337 384.17C256.222 405.547 272.108 426.924 287.993 448.301L288.013 448.321Z" fill="#6C7AB7"/>
<path d="M161.696 311.447L141.816 304.124L122.852 278.42L132.907 314.485L147.474 324.329L161.696 311.447Z" fill="#6C7AB7"/>
<path d="M122.85 278.42L122.18 311.785L132.121 331.812L145.426 325.897L147.471 324.329L132.905 314.485L122.85 278.42Z" fill="#386984"/>
<path d="M303.675 477.566L393.539 323.361L349.191 256.372L303.675 477.566Z" fill="#386984"/>
<path d="M349.177 256.372L393.526 323.361L577.613 290.77L349.177 256.372Z" fill="#6C7AB7"/>
<path d="M577.627 290.756L303.675 477.552L393.539 323.347L577.627 290.756Z" fill="#4D6F9B"/>
<path d="M317.511 486.151L593.012 306.143L497.719 460.308L317.511 486.151Z" fill="#6C7AB7"/>
<path d="M593.012 306.149L550.632 585.699L497.718 460.314L593.012 306.149Z" fill="#4D6F9B"/>
<path d="M317.511 486.159L427.028 549.298L550.632 585.7L497.719 460.316L317.511 486.159Z" fill="#386984"/>
<path d="M570.391 593.699L647.981 490.009L609.407 318.536L570.391 593.699Z" fill="#386984"/>
<path d="M609.409 318.536L647.983 490.009L794.206 491.498L708.45 452.217L609.409 318.536Z" fill="#6C7AB7"/>
<path d="M794.204 491.492L570.391 593.694L647.981 490.004L794.204 491.492Z" fill="#4D6F9B"/>
<path d="M575.232 611.659L804.09 506.163L726.15 608.921L575.232 611.659Z" fill="#6C7AB7"/>
<path d="M726.15 608.92L746.419 706.238L675.689 736.964L624.111 701.098L575.232 611.659L726.15 608.92Z" fill="#386984"/>
<path d="M804.099 506.163L833.035 614.954L746.42 706.238L726.159 608.921L804.099 506.163Z" fill="#4D6F9B"/>
<path d="M721.767 769.577L717.483 739.883L681.375 755.921L658.759 804.154L721.767 769.577Z" fill="#4D6F9B"/>
<path d="M748.97 726.047L717.47 739.882L721.753 769.576L734.122 801.413L748.97 726.047Z" fill="#6C7AB7"/>
<path d="M731.999 815.09C732.711 810.525 733.416 805.98 734.121 801.414L721.76 769.577L658.752 804.134L653.686 815.09C679.796 815.09 705.89 815.09 731.999 815.09Z" fill="#386984"/>
<path d="M805.963 714.321L839.531 673.115L841.955 630.579L785.221 690.462L805.963 714.321Z" fill="#6C7AB7"/>
<path d="M841.962 630.579L874.174 692.864L839.538 673.115L841.962 630.579Z" fill="#4D6F9B"/>
<path d="M805.963 714.33L839.531 673.124L874.168 692.874L805.963 714.33Z" fill="#386984"/>
<path d="M806.093 732.892L838.607 722.412C841.682 728.287 844.742 734.143 847.824 740.017C826.695 749.406 805.597 758.794 784.468 768.183L806.069 732.892H806.093Z" fill="#6C7AB7"/>
<path d="M838.596 722.415L874.759 711.299C870.382 730.274 866.022 749.25 861.669 768.225C853.978 752.962 846.279 737.679 838.596 722.415Z" fill="#4D6F9B"/>
<path d="M784.468 768.192C805.597 758.804 826.695 749.416 847.824 740.027C852.448 749.436 857.057 758.824 861.68 768.232C835.951 768.232 810.221 768.192 784.491 768.192H784.468Z" fill="#386984"/>
<path d="M517.417 701.639L504.304 667.677L543.167 622.581L517.417 701.639Z" fill="#6C7AB7"/>
<path d="M543.169 622.581L504.306 667.677L466.36 665.891L543.169 622.581Z" fill="#4D6F9B"/>
<path d="M466.373 665.892L504.319 667.678L517.432 701.639L445.097 701.401L466.373 665.892Z" fill="#386984"/>
<path d="M446.503 574.008L463.976 646.238L485.959 612.614L446.503 574.008Z" fill="#386984"/>
<path d="M446.503 574.008L540.555 603.225L485.959 612.614L446.503 574.008Z" fill="#4D6F9B"/>
<path d="M540.56 603.226L463.981 646.238L485.964 612.614L540.56 603.226Z" fill="#6C7AB7"/>
<path d="M200.583 615.311L251.814 590.163L246.653 547.905L224.784 535.619L200.315 581.568L200.583 615.311Z" fill="#4D6F9B"/>
<path d="M279.318 633.226L251.81 590.174L200.579 615.323L200.961 633.186L279.318 633.226Z" fill="#386984"/>
<path d="M368.76 537.743L299.521 560.013L236.878 524.583L368.76 537.743Z" fill="#386984"/>
<path d="M368.759 537.748C347.044 524.449 325.328 511.151 303.612 497.832C281.361 506.744 259.11 515.656 236.859 524.568C280.826 528.955 324.793 533.342 368.759 537.728V537.748Z" fill="#4D6F9B"/>
<path d="M330.035 243.308L320.018 219.351L318.584 184L295.836 207.382L292.357 218.636L291.401 237.79L330.035 243.308Z" fill="#6C7AB7"/>
<path d="M292.357 218.629L330.035 243.301L291.401 237.782L292.357 218.629Z" fill="#386984"/>
<path d="M320.036 219.354L330.053 243.311L292.374 218.639L295.854 207.385L320.036 219.354Z" fill="#6C7AB7"/>
<path d="M246.643 547.905C239.36 543.816 232.057 539.707 224.774 535.619C235.479 557.214 251.804 590.163 251.804 590.163C251.804 590.163 261.458 605.268 279.312 633.234C283.097 612.969 286.882 592.684 290.667 572.418L246.643 547.925V547.905Z" fill="#6C7AB7"/>
<path fill-rule="evenodd" clip-rule="evenodd" d="M438.592 733.983H517.887L622.647 847.058H743.77L784.061 798.292H859.709L900 900.004H602.559H587.091H0L198.866 662.144H283.09L438.592 733.983Z" fill="#385274"/>
</g>
<defs>
<clipPath id="clip0_595_312">
<rect width="900" height="900" fill="white"/>
</clipPath>
</defs>
</svg>
