<svg width="24" height="24" viewBox="0 0 24 24" fill="none" xmlns="http://www.w3.org/2000/svg">
<path fill-rule="evenodd" clip-rule="evenodd" d="M20.7492 8.87881C20.639 8.83513 20.5306 8.76961 20.4434 8.70385C20.2464 8.55193 20.1379 8.37673 20.1809 8.18065C20.2037 8.05009 20.2694 7.96201 20.3122 7.85377C20.6621 7.02409 19.4186 6.65377 18.1519 6.30457C17.585 6.12985 17.0186 5.97697 16.603 5.75929C16.7556 5.51857 16.6687 5.21305 16.429 5.06113C16.189 4.92985 15.8621 5.01673 15.7306 5.25745L12 11.7149L8.2908 5.25745C8.13792 5.01673 7.83264 4.92985 7.59264 5.06113C7.33152 5.21305 7.26576 5.51857 7.39728 5.75929C7.00464 5.97697 6.41496 6.12985 5.84808 6.30457C4.60488 6.65377 3.33816 7.02409 3.68808 7.85377C3.7308 7.96201 3.79632 8.05009 3.81936 8.18065C3.88344 8.37673 3.7752 8.55193 3.5568 8.70385C3.46968 8.76961 3.38256 8.83513 3.2724 8.87881C2.87976 9.07513 2.33424 9.22777 1.78896 9.38065C1.17792 9.55465 0.56856 9.72961 0 10.0351L3.38256 15.8815C3.92808 15.576 4.51584 15.4231 5.12712 15.2491C5.76096 15.0751 6.3936 14.8778 6.80736 14.6381C7.26576 14.377 7.48416 14.0278 7.2216 13.5473C6.80736 12.8491 7.98528 12.5222 9.18624 12.1733C9.73152 12.0204 10.277 11.8678 10.7777 11.6278L11.4103 12.7186L8.55384 17.6705C8.42256 17.9102 8.50944 18.2158 8.7492 18.3686C8.98896 18.5002 9.31584 18.413 9.44736 18.173L12 13.7436L14.5529 18.173C14.7058 18.413 15.0113 18.5002 15.251 18.3686C15.5122 18.2158 15.5777 17.9102 15.4464 17.6705L12.5899 12.7186L13.2434 11.6278C13.7448 11.8678 14.2901 12.0204 14.837 12.1733C16.0147 12.5222 17.1926 12.8491 16.8002 13.5473C16.5161 14.0278 16.7345 14.377 17.2138 14.6381C17.6299 14.8778 18.2621 15.0751 18.8945 15.2491C19.4825 15.4231 20.0938 15.576 20.6177 15.8815L24 10.0351C23.4314 9.72961 22.8434 9.55465 22.2324 9.38065C21.6871 9.22777 21.1418 9.07513 20.7492 8.87881ZM9.252 11.9333L8.48808 10.602C8.00832 10.7546 7.50576 10.8862 7.11288 11.0388L7.87704 12.3694C7.30872 12.588 6.91584 12.8491 6.89448 13.2418L6.30648 12.1946C6.61224 12.7406 6.1752 13.0675 5.4984 13.351L6.26208 14.6602C5.91192 14.7907 5.47704 14.9222 5.06304 15.0538C4.99728 15.0538 4.93152 15.0751 4.88712 15.0965L4.1232 13.7659C3.57792 13.9186 3.0768 14.0712 2.70552 14.2678L1.87584 12.8491C2.24712 12.6751 2.77128 12.4999 3.29544 12.3473L2.48712 10.951C1.96488 11.1038 1.44072 11.2565 1.06944 11.4314L0.30552 10.1222C0.6768 9.92593 1.20096 9.77329 1.7232 9.62041L2.48712 10.951C2.96856 10.7981 3.44808 10.6675 3.86232 10.5149L3.0984 9.18433C3.18552 9.14089 3.2724 9.11857 3.33816 9.07513C3.44808 9.03145 3.5568 8.96569 3.66672 8.90017C3.90648 8.74825 4.05936 8.55193 4.05936 8.31121L4.66872 9.35833C4.36488 8.81305 4.8 8.48617 5.47704 8.20201L4.71288 6.89353C5.06304 6.76201 5.47704 6.63145 5.91192 6.50089C5.97792 6.50089 6.02232 6.47881 6.08808 6.45745L6.852 7.78801C7.37424 7.63513 7.8984 7.46017 8.26968 7.28617L9.07608 8.70385C8.7048 8.87881 8.20392 9.05281 7.68 9.18433L8.48808 10.602C9.01032 10.4491 9.53448 10.2962 9.90576 10.1002L10.6697 11.4314C10.2984 11.6278 9.77424 11.7806 9.252 11.9333ZM23.7158 10.1222L22.9522 11.4314C22.5809 11.2565 22.0584 11.1038 21.5342 10.951L20.7048 12.3473C21.229 12.4999 21.7529 12.6751 22.1225 12.8491L21.3158 14.2678C20.9446 14.0712 20.4223 13.9186 19.8982 13.7659L19.1345 15.0965C19.0685 15.0751 19.003 15.0538 18.9602 15.0538C18.5232 14.9222 18.1092 14.7907 17.7593 14.6602L18.5232 13.351C17.825 13.0675 17.388 12.7406 17.7168 12.1946L17.1058 13.2418C17.0825 12.8491 16.6901 12.588 16.1448 12.3694L16.9085 11.0388C16.4945 10.8862 16.0147 10.7546 15.5122 10.602L14.748 11.9333C14.226 11.7806 13.7018 11.6278 13.3519 11.4314L14.1161 10.1002C14.4874 10.2962 14.9899 10.4491 15.5122 10.602L16.3418 9.18433C15.8177 9.05281 15.2935 8.87881 14.9242 8.70385L15.7519 7.28617C16.1232 7.46017 16.626 7.63513 17.1482 7.78801L17.9122 6.45745C18.3706 6.60937 18.829 6.71857 19.3082 6.89353L18.5446 8.20201C19.2214 8.48617 19.6584 8.81305 19.3529 9.35833L19.9409 8.31121C19.9639 8.55193 20.1168 8.74825 20.3563 8.90017C20.4434 8.96569 20.5519 9.03145 20.6621 9.07513C20.7492 9.11857 20.8363 9.14089 20.9234 9.18433L20.1593 10.5149C20.5519 10.6675 21.0547 10.7981 21.5342 10.951L22.2979 9.62041C22.8204 9.77329 23.3446 9.92593 23.7158 10.1222Z" fill="white"/>
<path fill-rule="evenodd" clip-rule="evenodd" d="M5.47708 10.777L6.30652 12.1947C6.001 11.6491 6.415 11.3223 7.11292 11.0388L6.28324 9.62042C5.60836 9.90386 5.17132 10.2315 5.47708 10.777Z" fill="white"/>
<path fill-rule="evenodd" clip-rule="evenodd" d="M5.47696 10.777L4.66864 9.35834C4.97416 9.90386 4.5388 10.2315 3.86224 10.5149L4.66864 11.9333C5.3668 11.6491 5.80384 11.3223 5.47696 10.777Z" fill="white"/>
<path fill-rule="evenodd" clip-rule="evenodd" d="M18.5445 8.20202C18.1305 8.05011 17.6299 7.91858 17.1482 7.78802L16.3418 9.18434C16.8213 9.33698 17.3241 9.46755 17.7168 9.62043L18.5445 8.20202Z" fill="white"/>
<path fill-rule="evenodd" clip-rule="evenodd" d="M17.7168 9.62042L16.9085 11.0388C17.5851 11.3223 18.0223 11.6491 17.7168 12.1947L18.5232 10.777C18.829 10.2315 18.3919 9.90386 17.7168 9.62042Z" fill="white"/>
<path fill-rule="evenodd" clip-rule="evenodd" d="M3.29541 12.3473L4.12317 13.7659C4.60485 13.6351 5.08413 13.5038 5.49837 13.351L4.66869 11.9333C4.27581 12.0862 3.77517 12.2167 3.29541 12.3473Z" fill="white"/>
<path fill-rule="evenodd" clip-rule="evenodd" d="M18.5233 13.351C18.9159 13.5038 19.4187 13.6351 19.8982 13.7659L20.7049 12.3473C20.2251 12.2167 19.7456 12.0862 19.3297 11.9333L18.5233 13.351Z" fill="white"/>
<path fill-rule="evenodd" clip-rule="evenodd" d="M7.67995 9.18434L6.85195 7.78802C6.37027 7.91858 5.86963 8.05011 5.47699 8.20202L6.28315 9.62043C6.69931 9.46755 7.17859 9.33698 7.67995 9.18434Z" fill="white"/>
<path fill-rule="evenodd" clip-rule="evenodd" d="M19.3296 11.9333L20.1593 10.5149C19.4611 10.2315 19.026 9.90386 19.3529 9.35834L18.5232 10.777C18.2177 11.3223 18.6547 11.6491 19.3296 11.9333Z" fill="white"/>
</svg>
