<svg viewBox="0 0 26 26" fill="none" xmlns="http://www.w3.org/2000/svg">
<path d="M12.9982 26C5.82127 26 0 20.1787 0 12.9982C0 5.82127 5.82127 0 12.9982 0C20.1787 0 25.9964 5.82127 25.9964 12.9982C25.9964 20.1787 20.1751 25.9964 12.9982 25.9964V26Z" fill="#292E8C"/>
<path d="M14.6259 12.6608H9.37372L9.38096 14.165H12.9223C12.5018 15.9955 11.2114 17.1192 9.47521 17.1192C7.19889 17.1192 5.35392 15.2742 5.35392 12.9979C5.35392 10.7216 7.19889 8.87659 9.47521 8.87659C10.559 8.87659 11.5413 9.29343 12.2771 9.97487L13.4406 8.97445C12.4221 7.97041 11.023 7.35059 9.47883 7.35059C6.35796 7.35059 3.83154 9.88063 3.83154 12.9979C3.83154 16.1151 6.36159 18.6452 9.47883 18.6452C12.5961 18.6452 14.6368 16.3616 14.6368 13.2407L14.6295 12.6572L14.6259 12.6608Z" fill="white"/>
<path d="M22.1725 12.7223H20.005V10.5547H18.6203V12.7223H16.4528V14.1069H18.6203V16.2745H20.005V14.1069H22.1725V12.7223Z" fill="white"/>
</svg>
