<svg viewBox="0 0 26 26" fill="none" xmlns="http://www.w3.org/2000/svg">
<path d="M13 26C20.1797 26 26 20.1797 26 13C26 5.8203 20.1797 0 13 0C5.8203 0 0 5.8203 0 13C0 20.1797 5.8203 26 13 26Z" fill="#292E8C"/>
<path d="M16.5839 8.65234C16.1475 8.65234 15.7929 9.00694 15.7929 9.44336C15.7929 9.87979 16.1475 10.2344 16.5839 10.2344C17.0204 10.2344 17.3749 9.87979 17.3749 9.44336C17.3749 9.00694 17.0204 8.65234 16.5839 8.65234Z" fill="white"/>
<path d="M13.0546 9.66699C11.2161 9.66699 9.72137 11.1617 9.72137 13.0002C9.72137 14.8386 11.2161 16.3334 13.0546 16.3334C14.893 16.3334 16.3878 14.8386 16.3878 13.0002C16.3878 11.1617 14.893 9.66699 13.0546 9.66699ZM13.0546 15.1332C11.8762 15.1332 10.9215 14.1731 10.9215 13.0002C10.9215 11.8273 11.8817 10.8672 13.0546 10.8672C14.2275 10.8672 15.1876 11.8273 15.1876 13.0002C15.1876 14.1731 14.2275 15.1332 13.0546 15.1332Z" fill="white"/>
<path d="M15.7002 19.7645H10.2994C8.0573 19.7645 6.23523 17.9424 6.23523 15.7003V10.2996C6.23523 8.05742 8.0573 6.23535 10.2994 6.23535H15.7002C17.9423 6.23535 19.7644 8.05742 19.7644 10.2996V15.7003C19.7644 17.9424 17.9423 19.7645 15.7002 19.7645ZM10.2994 7.50644C8.76104 7.50644 7.50632 8.76116 7.50632 10.2996V15.7003C7.50632 17.2387 8.76104 18.4934 10.2994 18.4934H15.7002C17.2386 18.4934 18.4933 17.2387 18.4933 15.7003V10.2996C18.4933 8.76116 17.2386 7.50644 15.7002 7.50644H10.2994Z" fill="white"/>
</svg>
