<svg width="14" height="18" viewBox="0 0 14 18" fill="none" xmlns="http://www.w3.org/2000/svg">
<path fill-rule="evenodd" clip-rule="evenodd" d="M6.75 5.0625C5.81794 5.0625 5.0625 5.81794 5.0625 6.75C5.0625 7.68206 5.81794 8.4375 6.75 8.4375C7.68206 8.4375 8.4375 7.68206 8.4375 6.75C8.4375 5.81794 7.68206 5.0625 6.75 5.0625ZM6.75 9.5625C5.19694 9.5625 3.9375 8.30363 3.9375 6.75C3.9375 5.19637 5.19694 3.9375 6.75 3.9375C8.30306 3.9375 9.5625 5.19637 9.5625 6.75C9.5625 8.30363 8.30306 9.5625 6.75 9.5625ZM6.75 0C3.02231 0 0 3.02231 0 6.75C0 9.57263 5.62781 18.0062 6.75 18C7.85475 18.0062 13.5 9.53438 13.5 6.75C13.5 3.02231 10.4777 0 6.75 0Z" fill="#FFC000"/>
</svg>
