<svg width="14" height="13" viewBox="0 0 14 13" fill="none" xmlns="http://www.w3.org/2000/svg">
<path d="M9.41715 8.17965L9.07552 8.51925C9.07552 8.51925 8.26357 9.32662 6.04732 7.1229C3.83109 4.91925 4.64302 4.11193 4.64302 4.11193L4.85812 3.89803C5.38807 3.37113 5.43802 2.52518 4.97565 1.90761L4.02994 0.644307C3.45771 -0.120063 2.35197 -0.221035 1.69609 0.43112L0.518886 1.60164C0.193671 1.92501 -0.0242638 2.34419 0.00216615 2.80921C0.0697787 3.99886 0.608031 6.55852 3.61152 9.54495C6.79657 12.7119 9.7851 12.8377 11.0072 12.7238C11.3938 12.6878 11.7299 12.4909 12.0008 12.2215L13.0663 11.1622C13.7854 10.4471 13.5826 9.22117 12.6625 8.721L11.2296 7.94205C10.6254 7.61362 9.88935 7.71007 9.41715 8.17965Z" fill="#FFC000"/>
</svg>
