<svg viewBox="0 0 26 26" fill="none" xmlns="http://www.w3.org/2000/svg">
<path d="M5.64793 21.1822C6.31708 19.6057 7.87941 18.5 9.7 18.5H16.3C18.1206 18.5 19.6829 19.6057 20.3521 21.1823M17.4 10.25C17.4 12.6801 15.4301 14.65 13 14.65C10.5699 14.65 8.6 12.6801 8.6 10.25C8.6 7.81995 10.5699 5.85 13 5.85C15.4301 5.85 17.4 7.81995 17.4 10.25ZM24 13C24 19.0751 19.0751 24 13 24C6.92487 24 2 19.0751 2 13C2 6.92487 6.92487 2 13 2C19.0751 2 24 6.92487 24 13Z" stroke="black" stroke-width="2" stroke-linecap="round" stroke-linejoin="round"/>
</svg>
