<svg viewBox="0 0 26 26" fill="none" xmlns="http://www.w3.org/2000/svg">
<path d="M13 26C20.1797 26 26 20.1797 26 13C26 5.8203 20.1797 0 13 0C5.8203 0 0 5.8203 0 13C0 20.1797 5.8203 26 13 26Z" fill="#292E8C"/>
<path d="M14.1023 12.0886L18.412 7.0752H17.3918L13.6495 11.4285L10.66 7.0752H7.21222L11.7347 13.6543L7.21222 18.9078H8.23236L12.1875 14.3144L15.3461 18.9078H18.7938L14.1023 12.0832V12.0886ZM12.7057 13.7143L12.2475 13.0597L8.60332 7.84439H10.1745L13.1149 12.0504L13.5731 12.7051L17.3973 18.1767H15.8262L12.7057 13.7143Z" fill="white"/>
</svg>
