<svg viewBox="0 0 26 26" fill="none" xmlns="http://www.w3.org/2000/svg">
<path d="M13 26C20.1797 26 26 20.1797 26 13C26 5.8203 20.1797 0 13 0C5.8203 0 0 5.8203 0 13C0 20.1797 5.8203 26 13 26Z" fill="#292E8C"/>
<path d="M19.3176 11.3519C19.3176 9.81892 18.0792 8.58057 16.5463 8.58057H9.45983C7.92689 8.58057 6.68854 9.81892 6.68854 11.3519V14.6469C6.68854 16.1798 7.92689 17.4182 9.45983 17.4182H16.5463C18.0792 17.4182 19.3176 16.1798 19.3176 14.6469V11.3519ZM15.1497 13.2449L11.9747 14.816C11.8493 14.8814 11.4292 14.7942 11.4292 14.6523V11.4228C11.4292 11.2809 11.8547 11.1882 11.9802 11.2591L15.0242 12.9121C15.1497 12.983 15.2861 13.1685 15.1552 13.2394L15.1497 13.2449Z" fill="white"/>
</svg>
